<mxfile host="app.diagrams.net" modified="2023-09-29T04:09:18.797Z" agent="Mozilla/5.0 (Windows NT 10.0; Win64; x64) AppleWebKit/537.36 (KHTML, like Gecko) Chrome/117.0.0.0 Safari/537.36" version="22.0.0" etag="WTKxYe1HaQmPhPD0b7E8" type="github">
  <diagram name="Page-1" id="Z3_S_wC6uff9RAghtmrk">
    <mxGraphModel>
      <root>
        <mxCell id="0" />
        <mxCell id="1" parent="0" />
      </root>
    </mxGraphModel>
  </diagram>
</mxfile>
